<svg xmlns="http://www.w3.org/2000/svg" viewBox="0 0 100 100">
    <!-- Enredadera m치gica esquina superior izquierda -->
    <g fill="none" stroke-linecap="round">
        <!-- Ramas principales desde la esquina -->
        <g stroke="#4a7a3a" stroke-opacity="0.7" stroke-width="1.2">
            <path d="M 0,0 Q 15,5 30,8 Q 50,12 70,10" />
            <path d="M 0,0 Q 8,12 18,28 Q 25,42 30,58" />
            <path d="M 0,0 Q 12,10 22,22 Q 35,38 45,50" />
        </g>
        <!-- Ramas secundarias m치s finas -->
        <g stroke="#5a9a4a" stroke-opacity="0.5" stroke-width="0.7">
            <path d="M 20,6 Q 28,12 32,20" />
            <path d="M 10,15 Q 18,22 20,32" />
            <path d="M 35,9 Q 42,16 40,26" />
            <path d="M 15,30 Q 22,36 28,42" />
            <path d="M 50,11 Q 55,18 52,28" />
        </g>
        <!-- Hojas peque침as -->
        <g fill="#6ab55a" fill-opacity="0.5" stroke="none">
            <ellipse cx="32" cy="20" rx="3" ry="1.8" transform="rotate(-30 32 20)" />
            <ellipse cx="22" cy="32" rx="2.5" ry="1.5" transform="rotate(-50 22 32)" />
            <ellipse cx="42" cy="26" rx="3" ry="1.8" transform="rotate(-20 42 26)" />
            <ellipse cx="14" cy="22" rx="2" ry="1.2" transform="rotate(-60 14 22)" />
            <ellipse cx="52" cy="14" rx="2.5" ry="1.5" transform="rotate(-10 52 14)" />
            <ellipse cx="28" cy="44" rx="2.5" ry="1.5" transform="rotate(-45 28 44)" />
            <ellipse cx="46" cy="50" rx="3" ry="1.8" transform="rotate(-35 46 50)" />
        </g>
        <!-- Destellos m치gicos (puntos luminosos) -->
        <g fill="#c8a0ff" fill-opacity="0.4" stroke="none">
            <circle cx="25" cy="10" r="1.2" />
            <circle cx="40" cy="18" r="0.8" />
            <circle cx="12" cy="25" r="1" />
            <circle cx="35" cy="35" r="0.9" />
            <circle cx="55" cy="12" r="0.7" />
        </g>
    </g>
</svg>
