<svg xmlns="http://www.w3.org/2000/svg" viewBox="0 0 100 100">
    <!-- Enredadera m치gica esquina superior derecha (espejada) -->
    <g fill="none" stroke-linecap="round">
        <!-- Ramas principales desde la esquina -->
        <g stroke="#4a7a3a" stroke-opacity="0.7" stroke-width="1.2">
            <path d="M 100,0 Q 85,5 70,8 Q 50,12 30,10" />
            <path d="M 100,0 Q 92,12 82,28 Q 75,42 70,58" />
            <path d="M 100,0 Q 88,10 78,22 Q 65,38 55,50" />
        </g>
        <!-- Ramas secundarias m치s finas -->
        <g stroke="#5a9a4a" stroke-opacity="0.5" stroke-width="0.7">
            <path d="M 80,6 Q 72,12 68,20" />
            <path d="M 90,15 Q 82,22 80,32" />
            <path d="M 65,9 Q 58,16 60,26" />
            <path d="M 85,30 Q 78,36 72,42" />
            <path d="M 50,11 Q 45,18 48,28" />
        </g>
        <!-- Hojas peque침as -->
        <g fill="#6ab55a" fill-opacity="0.5" stroke="none">
            <ellipse cx="68" cy="20" rx="3" ry="1.8" transform="rotate(30 68 20)" />
            <ellipse cx="78" cy="32" rx="2.5" ry="1.5" transform="rotate(50 78 32)" />
            <ellipse cx="58" cy="26" rx="3" ry="1.8" transform="rotate(20 58 26)" />
            <ellipse cx="86" cy="22" rx="2" ry="1.2" transform="rotate(60 86 22)" />
            <ellipse cx="48" cy="14" rx="2.5" ry="1.5" transform="rotate(10 48 14)" />
            <ellipse cx="72" cy="44" rx="2.5" ry="1.5" transform="rotate(45 72 44)" />
            <ellipse cx="54" cy="50" rx="3" ry="1.8" transform="rotate(35 54 50)" />
        </g>
        <!-- Destellos m치gicos (puntos luminosos) -->
        <g fill="#c8a0ff" fill-opacity="0.4" stroke="none">
            <circle cx="75" cy="10" r="1.2" />
            <circle cx="60" cy="18" r="0.8" />
            <circle cx="88" cy="25" r="1" />
            <circle cx="65" cy="35" r="0.9" />
            <circle cx="45" cy="12" r="0.7" />
        </g>
    </g>
</svg>
